<?xml version="1.0" standalone="no"?>
<!DOCTYPE svg PUBLIC "-//W3C//DTD SVG 20010904//EN"
 "http://www.w3.org/TR/2001/REC-SVG-20010904/DTD/svg10.dtd">
<svg version="1.0" xmlns="http://www.w3.org/2000/svg"
 width="700.000000pt" height="700.000000pt" viewBox="0 0 700.000000 700.000000"
 preserveAspectRatio="xMidYMid meet">
<metadata>
Created by potrace 1.14, written by Peter Selinger 2001-2017
</metadata>
<g transform="translate(0.000000,700.000000) scale(0.100000,-0.100000)"
fill="#000000" stroke="none">
<path d="M3275 6910 c-834 -59 -1600 -406 -2185 -990 -555 -553 -891 -1248
-986 -2035 -20 -169 -23 -547 -6 -715 102 -974 581 -1823 1357 -2405 1167
-876 2764 -911 3970 -87 695 475 1195 1196 1394 2011 66 270 94 512 94 811 0
227 -10 367 -44 568 -148 895 -660 1705 -1407 2229 -467 328 -1008 533 -1572
597 -171 20 -460 27 -615 16z m2503 -1370 l24 -20 -11 -343 c-6 -189 -11 -895
-11 -1568 0 -1075 2 -1232 16 -1284 22 -85 46 -107 172 -156 15 -6 22 -17 22
-34 0 -22 -4 -25 -32 -25 -18 0 -202 -11 -408 -25 -206 -14 -382 -25 -391 -25
-12 0 -21 21 -34 80 -10 45 -22 83 -26 86 -4 2 -38 -13 -76 -35 -88 -50 -235
-105 -343 -128 -115 -24 -382 -25 -490 -1 -197 43 -350 125 -475 252 -152 154
-241 340 -291 603 -22 121 -30 454 -14 592 65 560 398 942 900 1032 216 38
539 -2 738 -91 l62 -29 0 342 c0 188 -5 360 -10 381 -18 80 -65 115 -181 139
-58 11 -64 15 -67 39 l-3 26 318 77 c175 42 368 90 428 105 133 34 153 35 183
10z m-3522 -1006 c324 -56 548 -253 623 -546 36 -139 41 -250 41 -875 0 -387
4 -621 10 -645 14 -48 55 -97 97 -114 19 -8 68 -14 117 -14 74 0 88 -3 111
-23 l27 -23 -82 -78 c-130 -124 -242 -166 -440 -166 -172 0 -293 45 -386 141
-51 55 -114 166 -114 204 0 8 -3 15 -6 15 -4 0 -47 -39 -96 -86 -221 -210
-338 -269 -558 -281 -233 -13 -423 52 -566 193 -105 105 -156 241 -156 419 0
158 46 261 175 386 188 183 452 287 951 375 110 19 209 37 219 40 15 5 17 24
17 222 0 359 -21 513 -84 628 -87 158 -305 196 -428 73 -57 -57 -81 -127 -103
-303 -16 -126 -36 -210 -62 -259 -25 -49 -85 -107 -137 -135 -44 -23 -63 -27
-141 -27 -103 0 -158 19 -213 75 -64 63 -77 102 -77 225 0 104 2 114 33 179
58 123 146 207 295 283 242 122 629 171 933 117z"/>
<path d="M4642 4410 c-85 -18 -152 -58 -226 -133 -140 -143 -222 -349 -256
-642 -39 -347 -14 -767 61 -1000 71 -224 225 -375 412 -405 121 -19 272 11
390 78 l52 29 3 985 2 985 -87 40 c-127 59 -257 82 -351 63z"/>
<path d="M2110 3335 c-301 -60 -478 -188 -551 -396 -31 -88 -33 -285 -4 -373
51 -157 194 -245 353 -218 79 13 144 45 250 123 l82 60 0 415 c0 228 -3 413
-7 413 -5 -1 -60 -12 -123 -24z"/>
</g>
</svg>
